<svg width="408" height="214" viewBox="0 0 408 214" fill="none" xmlns="http://www.w3.org/2000/svg">
<path d="M348.39 175.802V43.8018H372.39V175.802H348.39Z" fill="#3e7d3c"/>
<path d="M306.337 175.802V89.3792H330.831V175.802H306.337ZM318.584 75.104C314.178 75.104 310.419 73.6784 307.309 70.8272C304.328 67.976 302.838 64.2176 302.838 59.552C302.838 54.8864 304.328 51.128 307.309 48.2768C310.419 45.4256 314.178 44 318.584 44C323.12 44 326.878 45.4256 329.859 48.2768C332.84 51.128 334.33 54.8864 334.33 59.552C334.33 64.2176 332.84 67.976 329.859 70.8272C326.878 73.6784 323.12 75.104 318.584 75.104Z" fill="#3e7d3c"/>
<path d="M187.39 92.1234V89.013C187.39 78.9042 189.399 70.2858 193.417 63.1578C197.434 55.9002 202.748 50.3922 209.358 46.6338C216.097 42.7458 223.419 40.8018 231.325 40.8018C240.138 40.8018 246.812 42.357 251.348 45.4674C255.884 48.5778 259.189 51.8178 261.262 55.1874H264.762V43.5234H288.867V154.053C288.867 160.663 286.923 165.911 283.035 169.799C279.147 173.817 273.963 175.826 267.483 175.826H202.942V154.442H258.93C262.558 154.442 264.373 152.498 264.373 148.61V126.532H260.874C259.578 128.606 257.763 130.744 255.43 132.947C253.098 135.021 249.987 136.771 246.099 138.196C242.211 139.622 237.286 140.335 231.325 140.335C223.419 140.335 216.097 138.455 209.358 134.697C202.748 130.809 197.434 125.301 193.417 118.173C189.399 110.915 187.39 102.232 187.39 92.1234ZM238.323 118.951C245.84 118.951 252.126 116.553 257.18 111.758C262.234 106.963 264.762 100.223 264.762 91.5402V89.5962C264.762 80.7834 262.234 74.0442 257.18 69.3786C252.255 64.5834 245.97 62.1858 238.323 62.1858C230.806 62.1858 224.521 64.5834 219.466 69.3786C214.412 74.0442 211.885 80.7834 211.885 89.5962V91.5402C211.885 100.223 214.412 106.963 219.466 111.758C224.521 116.553 230.806 118.951 238.323 118.951Z" fill="#3e7d3c"/>
<path d="M150.171 175.802V89.3792H174.666V175.802H150.171ZM162.419 75.104C158.012 75.104 154.254 73.6784 151.143 70.8272C148.163 67.976 146.672 64.2176 146.672 59.552C146.672 54.8864 148.163 51.128 151.143 48.2768C154.254 45.4256 158.012 44 162.419 44C166.955 44 170.713 45.4256 173.694 48.2768C176.675 51.128 178.165 54.8864 178.165 59.552C178.165 64.2176 176.675 67.976 173.694 70.8272C170.713 73.6784 166.955 75.104 162.419 75.104Z" fill="#3e7d3c"/>
<path d="M88.46 177.523C77.9624 177.523 68.696 175.644 60.6608 171.886C52.6256 168.127 46.34 162.749 41.804 155.75C37.268 148.752 35 140.328 35 130.478V125.035H60.272V130.478C60.272 138.643 62.7992 144.799 67.8536 148.946C72.908 152.964 79.7768 154.973 88.46 154.973C97.2728 154.973 103.818 153.223 108.094 149.724C112.501 146.225 114.704 141.754 114.704 136.31C114.704 132.552 113.602 129.506 111.399 127.174C109.326 124.841 106.215 122.962 102.068 121.536C98.0504 119.981 93.1256 118.555 87.2936 117.259L82.8224 116.287C73.4912 114.214 65.456 111.622 58.7168 108.511C52.1072 105.271 46.988 101.059 43.3592 95.8752C39.86 90.6912 38.1104 83.952 38.1104 75.6576C38.1104 67.3632 40.0544 60.3 43.9424 54.468C47.96 48.5064 53.5328 43.9704 60.6608 40.86C67.9184 37.62 76.4072 36 86.1272 36C95.8472 36 104.466 37.6848 111.982 41.0544C119.629 44.2944 125.59 49.2192 129.867 55.8288C134.274 62.3088 136.477 70.4736 136.477 80.3232V86.1552H111.205V80.3232C111.205 75.1392 110.168 70.992 108.094 67.8816C106.15 64.6416 103.299 62.3088 99.5408 60.8832C95.7824 59.328 91.3112 58.5504 86.1272 58.5504C78.3512 58.5504 72.584 60.0408 68.8256 63.0216C65.1968 65.8728 63.3824 69.8256 63.3824 74.88C63.3824 78.2496 64.2248 81.1008 65.9096 83.4336C67.724 85.7664 70.3808 87.7104 73.88 89.2656C77.3792 90.8208 81.8504 92.1816 87.2936 93.348L91.7648 94.32C101.485 96.3936 109.909 99.0504 117.037 102.29C124.294 105.53 129.932 109.807 133.95 115.121C137.967 120.434 139.976 127.238 139.976 135.533C139.976 143.827 137.838 151.15 133.561 157.5C129.414 163.721 123.452 168.646 115.676 172.274C108.03 175.774 98.9576 177.523 88.46 177.523Z" fill="#3e7d3c"/>
</svg>
