<svg width="483" height="267" viewBox="0 0 483 267" fill="none" xmlns="http://www.w3.org/2000/svg">
<path d="M121.127 60C130.847 60 139.466 61.6851 146.982 65.0547C154.629 68.2947 160.59 73.2195 164.867 79.8291C169.274 86.3091 171.477 94.4737 171.477 104.323V110.155H146.205V104.323C146.205 99.1394 145.168 94.9922 143.095 91.8818C141.151 88.6418 138.299 86.3084 134.541 84.8828C130.783 83.3276 126.311 82.5508 121.127 82.5508C113.351 82.5508 107.584 84.0407 103.825 87.0215C100.197 89.8726 98.3829 93.8256 98.3828 98.8799C98.3828 102.249 99.2245 105.101 100.909 107.434C102.724 109.766 105.381 111.71 108.88 113.266C112.379 114.821 116.851 116.181 122.294 117.348L126.765 118.32C136.485 120.394 144.909 123.05 152.037 126.29C159.295 129.53 164.932 133.808 168.949 139.121C172.967 144.435 174.976 151.239 174.976 159.533C174.976 167.827 172.837 175.15 168.561 181.5C164.413 187.721 158.452 192.646 150.676 196.274C143.029 199.774 133.957 201.523 123.46 201.523C112.963 201.523 103.696 199.644 95.6611 195.886C87.6259 192.127 81.3397 186.748 76.8037 179.75C72.2679 172.752 70 164.328 70 154.479V149.035H95.2725V154.479C95.2725 162.643 97.7992 168.799 102.854 172.946C107.908 176.964 114.777 178.973 123.46 178.973C132.273 178.973 138.818 177.223 143.095 173.724C147.501 170.225 149.704 165.754 149.704 160.311C149.704 156.552 148.602 153.507 146.399 151.174C144.326 148.841 141.215 146.962 137.068 145.536C133.051 143.981 128.126 142.555 122.294 141.259L117.822 140.287C108.491 138.214 100.456 135.622 93.7168 132.512C87.1072 129.272 81.9882 125.059 78.3594 119.875C74.8602 114.691 73.1104 107.952 73.1104 99.6572C73.1104 91.363 75.0544 84.2997 78.9424 78.4678C82.96 72.5063 88.5332 67.9707 95.6611 64.8604C102.919 61.6204 111.407 60 121.127 60Z" fill="#328A3F"/>
<path fill-rule="evenodd" clip-rule="evenodd" d="M266.325 64.8018C275.138 64.8018 281.812 66.3566 286.348 69.4668C290.884 72.5772 294.189 75.8179 296.263 79.1875H299.762V67.5234H323.867V178.053C323.867 184.662 321.923 189.911 318.035 193.799C314.147 197.816 308.963 199.825 302.483 199.825H233.942V178.441H293.93C297.558 178.441 299.373 176.497 299.373 172.609V150.532H295.874C294.578 152.606 292.763 154.744 290.431 156.947C288.098 159.021 284.987 160.771 281.1 162.196C277.212 163.622 272.287 164.334 266.325 164.334C258.42 164.334 251.097 162.456 244.357 158.697C237.748 154.809 232.435 149.301 228.417 142.173C224.399 134.915 222.391 126.232 222.391 116.123V113.013C222.391 102.904 224.399 94.2852 228.417 87.1572C232.435 79.8999 237.748 74.3921 244.357 70.6338C251.097 66.7458 258.42 64.8018 266.325 64.8018ZM273.323 86.1855C265.806 86.1855 259.521 88.5837 254.467 93.3789C249.412 98.0444 246.885 104.783 246.885 113.596V115.54C246.885 124.223 249.412 130.963 254.467 135.758C259.521 140.553 265.807 142.95 273.323 142.95C280.84 142.95 287.125 140.553 292.18 135.758C297.234 130.963 299.762 124.223 299.762 115.54V113.596C299.762 104.783 297.234 98.0444 292.18 93.3789C287.255 88.5837 280.97 86.1856 273.323 86.1855Z" fill="#328A3F"/>
<path d="M209.666 199.802H185.172V113.379H209.666V199.802Z" fill="#328A3F"/>
<path d="M365.831 199.802H341.337V113.379H365.831V199.802Z" fill="#328A3F"/>
<path d="M407.391 199.802H383.391V67.8018H407.391V199.802Z" fill="#328A3F"/>
<path d="M197.419 68C201.955 68.0001 205.713 69.4255 208.693 72.2764C211.674 75.1275 213.165 78.8863 213.165 83.5518C213.165 88.2174 211.674 91.9759 208.693 94.8271C205.713 97.6781 201.955 99.1044 197.419 99.1045C193.013 99.1045 189.254 97.6783 186.144 94.8271C183.163 91.9759 181.672 88.2174 181.672 83.5518C181.672 78.8863 183.163 75.1275 186.144 72.2764C189.254 69.4254 193.013 68 197.419 68Z" fill="#328A3F"/>
<path d="M353.584 68C358.12 68 361.879 69.4253 364.859 72.2764C367.84 75.1275 369.33 78.8863 369.33 83.5518C369.33 88.2173 367.84 91.976 364.859 94.8271C361.879 97.6784 358.12 99.1045 353.584 99.1045C349.178 99.1045 345.419 97.6783 342.309 94.8271C339.328 91.976 337.838 88.2173 337.838 83.5518C337.838 78.8863 339.328 75.1275 342.309 72.2764C345.419 69.4252 349.178 68 353.584 68Z" fill="#328A3F"/>
<path fill-rule="evenodd" clip-rule="evenodd" d="M468.738 250H13V11H468.738V250ZM36 227H445.738V34H36V227Z" fill="#328A3F"/>
</svg>
